<mxfile host="app.diagrams.net" modified="2023-07-25T11:00:39.644Z" agent="Mozilla/5.0 (Windows NT 10.0; Win64; x64) AppleWebKit/537.36 (KHTML, like Gecko) Chrome/114.0.0.0 Safari/537.36" etag="KXZFjGzbelzVRFsXGmpG" version="21.6.2" type="device">
  <diagram name="Halaman-1" id="YIZQdiCvubiWhuYV62CL">
    <mxGraphModel dx="1032" dy="458" grid="1" gridSize="10" guides="1" tooltips="1" connect="1" arrows="1" fold="1" page="1" pageScale="1" pageWidth="827" pageHeight="1169" math="0" shadow="0">
      <root>
        <mxCell id="0" />
        <mxCell id="1" parent="0" />
        <mxCell id="vM6njQTRzihX8F_pR8Zw-38" value="" style="rounded=0;whiteSpace=wrap;html=1;" vertex="1" parent="1">
          <mxGeometry x="500" y="45" width="130" height="205" as="geometry" />
        </mxCell>
        <mxCell id="vM6njQTRzihX8F_pR8Zw-36" value="" style="rounded=0;whiteSpace=wrap;html=1;" vertex="1" parent="1">
          <mxGeometry x="320" y="55" width="140" height="325" as="geometry" />
        </mxCell>
        <mxCell id="vM6njQTRzihX8F_pR8Zw-2" value="" style="ellipse;whiteSpace=wrap;html=1;" vertex="1" parent="1">
          <mxGeometry x="180" y="60" width="80" height="60" as="geometry" />
        </mxCell>
        <mxCell id="vM6njQTRzihX8F_pR8Zw-3" value="Mulai" style="text;html=1;strokeColor=none;fillColor=none;align=center;verticalAlign=middle;whiteSpace=wrap;rounded=0;" vertex="1" parent="1">
          <mxGeometry x="185" y="75" width="70" height="30" as="geometry" />
        </mxCell>
        <mxCell id="vM6njQTRzihX8F_pR8Zw-7" value="" style="rounded=1;whiteSpace=wrap;html=1;" vertex="1" parent="1">
          <mxGeometry x="160" y="140" width="120" height="60" as="geometry" />
        </mxCell>
        <mxCell id="vM6njQTRzihX8F_pR8Zw-41" value="" style="edgeStyle=orthogonalEdgeStyle;rounded=0;orthogonalLoop=1;jettySize=auto;html=1;" edge="1" parent="1" source="vM6njQTRzihX8F_pR8Zw-8" target="vM6njQTRzihX8F_pR8Zw-10">
          <mxGeometry relative="1" as="geometry" />
        </mxCell>
        <mxCell id="vM6njQTRzihX8F_pR8Zw-8" value="Pengumpulan Dataset&amp;nbsp;" style="text;html=1;strokeColor=none;fillColor=none;align=center;verticalAlign=middle;whiteSpace=wrap;rounded=0;" vertex="1" parent="1">
          <mxGeometry x="160" y="140" width="120" height="60" as="geometry" />
        </mxCell>
        <mxCell id="vM6njQTRzihX8F_pR8Zw-9" value="" style="rounded=1;whiteSpace=wrap;html=1;" vertex="1" parent="1">
          <mxGeometry x="160" y="230" width="120" height="60" as="geometry" />
        </mxCell>
        <mxCell id="vM6njQTRzihX8F_pR8Zw-42" value="" style="edgeStyle=orthogonalEdgeStyle;rounded=0;orthogonalLoop=1;jettySize=auto;html=1;" edge="1" parent="1" source="vM6njQTRzihX8F_pR8Zw-10" target="vM6njQTRzihX8F_pR8Zw-12">
          <mxGeometry relative="1" as="geometry" />
        </mxCell>
        <mxCell id="vM6njQTRzihX8F_pR8Zw-10" value="&lt;i&gt;Pre-processing &lt;/i&gt;dengan augmentasi data" style="text;html=1;strokeColor=none;fillColor=none;align=center;verticalAlign=middle;whiteSpace=wrap;rounded=0;" vertex="1" parent="1">
          <mxGeometry x="160" y="230" width="120" height="60" as="geometry" />
        </mxCell>
        <mxCell id="vM6njQTRzihX8F_pR8Zw-11" value="" style="rounded=0;whiteSpace=wrap;html=1;" vertex="1" parent="1">
          <mxGeometry x="160" y="320" width="120" height="30" as="geometry" />
        </mxCell>
        <mxCell id="vM6njQTRzihX8F_pR8Zw-12" value="&lt;i&gt;ResNet152 &lt;/i&gt;CNN" style="text;html=1;strokeColor=none;fillColor=none;align=center;verticalAlign=middle;whiteSpace=wrap;rounded=0;" vertex="1" parent="1">
          <mxGeometry x="160" y="320" width="120" height="30" as="geometry" />
        </mxCell>
        <mxCell id="vM6njQTRzihX8F_pR8Zw-15" value="" style="rounded=0;whiteSpace=wrap;html=1;" vertex="1" parent="1">
          <mxGeometry x="330" y="75" width="120" height="30" as="geometry" />
        </mxCell>
        <mxCell id="vM6njQTRzihX8F_pR8Zw-16" value="Evaluasi Model" style="text;html=1;strokeColor=none;fillColor=none;align=center;verticalAlign=middle;whiteSpace=wrap;rounded=0;" vertex="1" parent="1">
          <mxGeometry x="330" y="75" width="120" height="30" as="geometry" />
        </mxCell>
        <mxCell id="vM6njQTRzihX8F_pR8Zw-17" value="" style="rounded=1;whiteSpace=wrap;html=1;" vertex="1" parent="1">
          <mxGeometry x="335" y="130" width="110" height="50" as="geometry" />
        </mxCell>
        <mxCell id="vM6njQTRzihX8F_pR8Zw-18" value="Training, Validation" style="text;html=1;strokeColor=none;fillColor=none;align=center;verticalAlign=middle;whiteSpace=wrap;rounded=0;" vertex="1" parent="1">
          <mxGeometry x="340" y="135" width="100" height="40" as="geometry" />
        </mxCell>
        <mxCell id="vM6njQTRzihX8F_pR8Zw-19" value="" style="rounded=1;whiteSpace=wrap;html=1;" vertex="1" parent="1">
          <mxGeometry x="335" y="210" width="110" height="50" as="geometry" />
        </mxCell>
        <mxCell id="vM6njQTRzihX8F_pR8Zw-20" value="Testing" style="text;html=1;strokeColor=none;fillColor=none;align=center;verticalAlign=middle;whiteSpace=wrap;rounded=0;" vertex="1" parent="1">
          <mxGeometry x="340" y="215" width="100" height="40" as="geometry" />
        </mxCell>
        <mxCell id="vM6njQTRzihX8F_pR8Zw-23" value="" style="rounded=1;whiteSpace=wrap;html=1;" vertex="1" parent="1">
          <mxGeometry x="335" y="290" width="110" height="50" as="geometry" />
        </mxCell>
        <mxCell id="vM6njQTRzihX8F_pR8Zw-24" value="Output Evaluasi Model" style="text;html=1;strokeColor=none;fillColor=none;align=center;verticalAlign=middle;whiteSpace=wrap;rounded=0;" vertex="1" parent="1">
          <mxGeometry x="340" y="295" width="100" height="40" as="geometry" />
        </mxCell>
        <mxCell id="vM6njQTRzihX8F_pR8Zw-27" value="" style="rounded=1;whiteSpace=wrap;html=1;" vertex="1" parent="1">
          <mxGeometry x="510" y="70" width="110" height="50" as="geometry" />
        </mxCell>
        <mxCell id="vM6njQTRzihX8F_pR8Zw-28" value="Predict Jenis Motif Batik" style="text;html=1;strokeColor=none;fillColor=none;align=center;verticalAlign=middle;whiteSpace=wrap;rounded=0;" vertex="1" parent="1">
          <mxGeometry x="515" y="75" width="100" height="40" as="geometry" />
        </mxCell>
        <mxCell id="vM6njQTRzihX8F_pR8Zw-29" value="" style="rounded=1;whiteSpace=wrap;html=1;" vertex="1" parent="1">
          <mxGeometry x="510" y="160" width="110" height="50" as="geometry" />
        </mxCell>
        <mxCell id="vM6njQTRzihX8F_pR8Zw-30" value="Output Hasil Predict" style="text;html=1;strokeColor=none;fillColor=none;align=center;verticalAlign=middle;whiteSpace=wrap;rounded=0;" vertex="1" parent="1">
          <mxGeometry x="515" y="165" width="100" height="40" as="geometry" />
        </mxCell>
        <mxCell id="vM6njQTRzihX8F_pR8Zw-37" value="Classification process" style="text;html=1;strokeColor=none;fillColor=none;align=center;verticalAlign=middle;whiteSpace=wrap;rounded=0;" vertex="1" parent="1">
          <mxGeometry x="320" y="350" width="140" height="30" as="geometry" />
        </mxCell>
        <mxCell id="vM6njQTRzihX8F_pR8Zw-39" value="Classification Report" style="text;html=1;strokeColor=none;fillColor=none;align=center;verticalAlign=middle;whiteSpace=wrap;rounded=0;" vertex="1" parent="1">
          <mxGeometry x="500" y="220" width="130" height="35" as="geometry" />
        </mxCell>
        <mxCell id="vM6njQTRzihX8F_pR8Zw-40" value="" style="endArrow=classic;html=1;rounded=0;exitX=0.5;exitY=1;exitDx=0;exitDy=0;entryX=0.5;entryY=0;entryDx=0;entryDy=0;" edge="1" parent="1" source="vM6njQTRzihX8F_pR8Zw-2" target="vM6njQTRzihX8F_pR8Zw-8">
          <mxGeometry width="50" height="50" relative="1" as="geometry">
            <mxPoint x="70" y="320" as="sourcePoint" />
            <mxPoint x="120" y="270" as="targetPoint" />
          </mxGeometry>
        </mxCell>
        <mxCell id="vM6njQTRzihX8F_pR8Zw-45" value="" style="endArrow=classic;html=1;rounded=0;exitX=1;exitY=0.5;exitDx=0;exitDy=0;entryX=0;entryY=0.5;entryDx=0;entryDy=0;" edge="1" parent="1" source="vM6njQTRzihX8F_pR8Zw-12" target="vM6njQTRzihX8F_pR8Zw-16">
          <mxGeometry width="50" height="50" relative="1" as="geometry">
            <mxPoint x="80" y="220" as="sourcePoint" />
            <mxPoint x="130" y="170" as="targetPoint" />
            <Array as="points">
              <mxPoint x="300" y="335" />
              <mxPoint x="300" y="90" />
            </Array>
          </mxGeometry>
        </mxCell>
        <mxCell id="vM6njQTRzihX8F_pR8Zw-46" value="" style="edgeStyle=orthogonalEdgeStyle;rounded=0;orthogonalLoop=1;jettySize=auto;html=1;entryX=0.5;entryY=0;entryDx=0;entryDy=0;" edge="1" parent="1" source="vM6njQTRzihX8F_pR8Zw-16" target="vM6njQTRzihX8F_pR8Zw-18">
          <mxGeometry relative="1" as="geometry" />
        </mxCell>
        <mxCell id="vM6njQTRzihX8F_pR8Zw-47" value="" style="edgeStyle=orthogonalEdgeStyle;rounded=0;orthogonalLoop=1;jettySize=auto;html=1;entryX=0.5;entryY=0;entryDx=0;entryDy=0;" edge="1" parent="1" source="vM6njQTRzihX8F_pR8Zw-20" target="vM6njQTRzihX8F_pR8Zw-24">
          <mxGeometry relative="1" as="geometry" />
        </mxCell>
        <mxCell id="vM6njQTRzihX8F_pR8Zw-48" value="" style="edgeStyle=orthogonalEdgeStyle;rounded=0;orthogonalLoop=1;jettySize=auto;html=1;entryX=0.5;entryY=0;entryDx=0;entryDy=0;" edge="1" parent="1" source="vM6njQTRzihX8F_pR8Zw-18" target="vM6njQTRzihX8F_pR8Zw-20">
          <mxGeometry relative="1" as="geometry" />
        </mxCell>
        <mxCell id="vM6njQTRzihX8F_pR8Zw-49" value="" style="endArrow=classic;html=1;rounded=0;exitX=1;exitY=0.5;exitDx=0;exitDy=0;entryX=0;entryY=0.5;entryDx=0;entryDy=0;" edge="1" parent="1" source="vM6njQTRzihX8F_pR8Zw-23" target="vM6njQTRzihX8F_pR8Zw-27">
          <mxGeometry width="50" height="50" relative="1" as="geometry">
            <mxPoint x="80" y="220" as="sourcePoint" />
            <mxPoint x="130" y="170" as="targetPoint" />
            <Array as="points">
              <mxPoint x="480" y="315" />
              <mxPoint x="480" y="95" />
            </Array>
          </mxGeometry>
        </mxCell>
        <mxCell id="vM6njQTRzihX8F_pR8Zw-50" value="" style="edgeStyle=orthogonalEdgeStyle;rounded=0;orthogonalLoop=1;jettySize=auto;html=1;entryX=0.5;entryY=0;entryDx=0;entryDy=0;" edge="1" parent="1" source="vM6njQTRzihX8F_pR8Zw-27" target="vM6njQTRzihX8F_pR8Zw-30">
          <mxGeometry relative="1" as="geometry" />
        </mxCell>
        <mxCell id="vM6njQTRzihX8F_pR8Zw-51" value="" style="ellipse;whiteSpace=wrap;html=1;" vertex="1" parent="1">
          <mxGeometry x="525" y="280" width="80" height="60" as="geometry" />
        </mxCell>
        <mxCell id="vM6njQTRzihX8F_pR8Zw-52" value="Selesai" style="text;html=1;strokeColor=none;fillColor=none;align=center;verticalAlign=middle;whiteSpace=wrap;rounded=0;" vertex="1" parent="1">
          <mxGeometry x="530" y="295" width="70" height="30" as="geometry" />
        </mxCell>
        <mxCell id="vM6njQTRzihX8F_pR8Zw-53" value="" style="edgeStyle=orthogonalEdgeStyle;rounded=0;orthogonalLoop=1;jettySize=auto;html=1;" edge="1" parent="1">
          <mxGeometry relative="1" as="geometry">
            <mxPoint x="565" y="250" as="sourcePoint" />
            <mxPoint x="565" y="280" as="targetPoint" />
          </mxGeometry>
        </mxCell>
      </root>
    </mxGraphModel>
  </diagram>
</mxfile>
